<svg width="24" height="24" viewBox="0 0 24 24" fill="none" xmlns="http://www.w3.org/2000/svg">
<g id="ic_closefull" clip-path="url(#clip0_691_27784)">
<path id="Vector" d="M20.7243 4.60749L16.4158 8.91594L17.9083 10.4084C18.4996 10.9998 18.0772 12.0135 17.2418 12.0135H12.9428C12.4265 12.0135 12.0041 11.5911 12.0041 11.0749V6.75702C12.0041 5.92161 13.0179 5.49921 13.6092 6.09057L15.1017 7.58304L19.4101 3.27459C19.7762 2.90851 20.3676 2.90851 20.7336 3.27459C21.0903 3.65005 21.0903 4.24141 20.7243 4.60749ZM4.60746 20.7243L8.91591 16.4158L10.4084 17.9083C10.9997 18.4997 12.0135 18.0773 12.0135 17.2419V12.9428C12.0135 12.4265 11.5911 12.0041 11.0748 12.0041H6.75699C5.92158 12.0041 5.49918 13.0179 6.09054 13.6092L7.58301 15.1017L3.27456 19.4102C2.90848 19.7762 2.90848 20.3676 3.27456 20.7337C3.65002 21.0904 4.24138 21.0904 4.60746 20.7243Z" fill="#EBEBEB"/>
</g>
<defs>
<clipPath id="clip0_691_27784">
<rect width="24" height="24" fill="white"/>
</clipPath>
</defs>
</svg>
