<svg width="18" height="19" viewBox="0 0 18 19" fill="none" xmlns="http://www.w3.org/2000/svg">
<g id="ic_download">
<g id="ic">
<path id="Vector" d="M3.75 14.75C3.75 15.1625 4.0875 15.5 4.5 15.5H13.5C13.9125 15.5 14.25 15.1625 14.25 14.75C14.25 14.3375 13.9125 14 13.5 14H4.5C4.0875 14 3.75 14.3375 3.75 14.75Z" fill="#12121D" fill-opacity="0.6"/>
<path id="Vector_2" d="M10.7497 8V8.5H11.2497H12.4422C12.6559 8.5 12.7771 8.76551 12.6137 8.92895L9.17115 12.3714C9.07392 12.4687 8.918 12.4687 8.82076 12.3714L5.37826 8.92895C5.22238 8.77306 5.33285 8.5 5.55721 8.5H6.74971H7.24971V8V4.25C7.24971 4.11364 7.36335 4 7.49971 4H10.4997C10.6361 4 10.7497 4.11364 10.7497 4.25V8Z" stroke="#12121D" stroke-opacity="0.6"/>
</g>
</g>
</svg>
