<svg width="24" height="24" viewBox="0 0 24 24" fill="none" xmlns="http://www.w3.org/2000/svg">
  <path fill-rule="evenodd" clip-rule="evenodd" d="M20.0967 18L20.0967 16L8.09668 16L8.09668 18L20.0967 18Z" fill="#00B6B3"/>
  <path fill-rule="evenodd" clip-rule="evenodd" d="M20.0967 13L20.0967 11L18.0967 11L18.0967 13L20.0967 13Z" fill="#00B6B3"/>
  <path fill-rule="evenodd" clip-rule="evenodd" d="M20.0967 8L20.0967 6L15.0967 6L15.0967 8L20.0967 8Z" fill="#00B6B3"/>
  <path fill-rule="evenodd" clip-rule="evenodd" d="M7.09668 18L7.09668 16L4.09668 16L4.09668 18L7.09668 18Z" fill="#00B6B3"/>
  <path fill-rule="evenodd" clip-rule="evenodd" d="M17.0967 13L17.0967 11L4.09668 11L4.09668 13L17.0967 13Z" fill="#00B6B3"/>
  <path fill-rule="evenodd" clip-rule="evenodd" d="M14.0967 8L14.0967 6L4.09668 6L4.09668 8L14.0967 8Z" fill="#00B6B3"/>
</svg>
