<svg width="18" height="18" viewBox="0 0 18 18" fill="none" xmlns="http://www.w3.org/2000/svg">
<g id="ic_search">
<path id="Vector" d="M11.7991 10.7387H11.243L11.0459 10.5487C11.8906 9.56388 12.327 8.22024 12.0877 6.79218C11.7568 4.83652 10.1238 3.2748 8.15291 3.03561C5.17546 2.66981 2.66961 5.17418 3.03563 8.14989C3.27496 10.1196 4.83759 11.7517 6.79441 12.0823C8.2233 12.3215 9.56773 11.8854 10.5532 11.0412L10.7432 11.2382V11.7939L13.7348 14.7837C14.0234 15.0721 14.495 15.0721 14.7836 14.7837C15.0721 14.4953 15.0721 14.0239 14.7836 13.7355L11.7991 10.7387ZM7.57572 10.7387C5.82304 10.7387 4.40822 9.3247 4.40822 7.57304C4.40822 5.82138 5.82304 4.40739 7.57572 4.40739C9.32841 4.40739 10.7432 5.82138 10.7432 7.57304C10.7432 9.3247 9.32841 10.7387 7.57572 10.7387Z" fill="#8484AB"/>
</g>
</svg>
